<?xml version="1.0" encoding="utf-8"?>
<!-- Generator: Adobe Illustrator 20.1.0, SVG Export Plug-In . SVG Version: 6.00 Build 0)  -->
<svg version="1.1" id="Layer_1" xmlns="http://www.w3.org/2000/svg" xmlns:xlink="http://www.w3.org/1999/xlink" x="0px" y="0px"
	 viewBox="0 0 132 100" style="enable-background:new 0 0 132 100;" xml:space="preserve">
<style type="text/css">
	.st0{fill:#000300;}
</style>
<title>Logotipo</title>
<g>
	<path class="st0" d="M53.7,32.9h-1.4L52,32.7l-1.4-3.6l-0.5-0.2h-6.5l-0.5,0.2l-1.4,3.6l-0.2,0.2h-1.4l-0.2-0.2V31l5.7-14.6
		l0.2-0.2h2.2l0.2,0.2L53.9,31v1.7L53.7,32.9z M47,19.8h-0.2l-2.6,6.7l0.2,0.2h5l0.2-0.2L47,19.8z"/>
	<path class="st0" d="M91.9,83.1h-1.4l-0.2-0.2l-1.4-3.6l-0.5-0.2h-6.5l-0.5,0.2L80,82.9l-0.2,0.2h-1.4l-0.2-0.2v-1.7l5.7-14.6
		l0.2-0.2h2.2l0.2,0.2l5.7,14.6v1.7L91.9,83.1z M85.2,70H85l-2.6,6.7l0.2,0.2h5l0.2-0.2L85.2,70z"/>
</g>
<g>
	<path class="st0" d="M92.2,49.7H90l-0.5-0.2L81.4,37h-0.2v12.4l-0.2,0.2H79l-0.2-0.2V33.2L79,33h2.2l0.5,0.2l8.1,12.4H90V33.2
		l0.2-0.2h1.9l0.2,0.2v16.3L92.2,49.7z"/>
	<path class="st0" d="M53,66.4h-2.2l-0.5-0.2l-8.1-12.4H42v12.4l-0.2,0.2h-1.9l-0.2-0.2V49.9l0.2-0.2H42l0.5,0.2l8.1,12.4h0.2V49.9
		l0.2-0.2H53l0.2,0.2v16.3L53,66.4z"/>
</g>
</svg>
