<?xml version="1.0" encoding="utf-8"?>
<!-- Generator: Adobe Illustrator 20.1.0, SVG Export Plug-In . SVG Version: 6.00 Build 0)  -->
<svg version="1.1" id="Capa_1" xmlns="http://www.w3.org/2000/svg" xmlns:xlink="http://www.w3.org/1999/xlink" x="0px" y="0px"
	 viewBox="0 0 118.7 91.7" style="enable-background:new 0 0 118.7 91.7;" xml:space="preserve">
<style type="text/css">
	.st0{fill:#272424;}
</style>
<g>
	<path class="st0" d="M112.3,44.8c0.2,0,0.1-0.2,0.1-0.2C112.1,44.6,112.3,44.9,112.3,44.8z"/>
	<polygon class="st0" points="109.8,45.3 109.8,45.2 109.4,45.4 	"/>
	<path class="st0" d="M107.4,45.4c0.2,0.3,0.9-0.1,1.3,0l0.1,0.1l0.2-0.3C108.4,45.3,107.8,45.4,107.4,45.4z"/>
	<path class="st0" d="M106.1,44.7c0.1,0.1-0.3,0.1,0.3,0c0,0,0,0-0.1,0C106.3,44.7,106.2,44.7,106.1,44.7z"/>
	<path class="st0" d="M106.4,44.7C106.6,44.7,106.2,44.6,106.4,44.7L106.4,44.7z"/>
	<path class="st0" d="M105.2,44.8l0.3-0.1c-0.1-0.1-0.4-0.1-0.3-0.1C104.9,44.6,105,44.7,105.2,44.8z"/>
	<path class="st0" d="M104.9,45l0.2-0.1C105,44.9,105,44.9,104.9,45z"/>
	<path class="st0" d="M105.4,44.9l-0.4,0.1c0,0.1,0.1,0.2,0.2,0C105.2,45,105.3,44.9,105.4,44.9z"/>
	<path class="st0" d="M105.6,44.9c0.2,0.1,0.4,0.1,0.1,0.2C106.4,45.1,106.3,44.8,105.6,44.9z"/>
	<path class="st0" d="M107.3,45.7l0.2,0.1l0.2-0.1C107.6,45.7,107.3,45.6,107.3,45.7z"/>
	<path class="st0" d="M103.2,44.7c0,0.1,0.1,0.2,0.1,0.3l0.2-0.1C103.4,44.8,103.2,44.8,103.2,44.7z"/>
	<path class="st0" d="M103.3,44.9l-0.4,0.1C103.3,45.1,103.3,45,103.3,44.9z"/>
	<polygon class="st0" points="104.9,45.4 105.4,45.1 104.7,45.4 	"/>
	<polygon class="st0" points="101.8,44.7 102,44.5 101.6,44.8 	"/>
	<path class="st0" d="M100.9,44.7c0.1-0.1-0.2-0.2-0.1-0.3c-0.2,0-0.5,0.2-0.6,0.3C100.4,44.6,100.6,44.6,100.9,44.7z"/>
	<path class="st0" d="M99.8,44.8c0.1,0,0.2-0.1,0.3-0.2C100,44.7,99.9,44.8,99.8,44.8z"/>
	<path class="st0" d="M102.3,45c0,0-0.1-0.2-0.3-0.2l0.1,0.2C102.2,45,102.3,45,102.3,45z"/>
	<path class="st0" d="M102.2,45L102.2,45c-0.2,0-0.3,0-0.3,0C101.9,45,102,45,102.2,45z"/>
	<path class="st0" d="M102.4,45C102.3,45,102.3,45,102.4,45C102.3,45.1,102.3,45.1,102.4,45z"/>
	<path class="st0" d="M103.9,45.2c-0.2,0.1-0.7,0.2-0.2,0.4C103.8,45.5,103.6,45.4,103.9,45.2z"/>
	<path class="st0" d="M102.5,45.3l0.4,0c0-0.1-0.1-0.1,0-0.2L102.5,45.3z"/>
	<polygon class="st0" points="102.4,45.4 102.5,45.3 102.4,45.3 	"/>
	<path class="st0" d="M100.5,45c-0.2,0.1-0.3,0.1-0.6,0.1c0.2,0,0.5,0,0.7,0C100.6,45.1,100.7,45,100.5,45z"/>
	<path class="st0" d="M101.3,45C101.3,45.1,101.3,45.1,101.3,45C101.3,45.1,101.3,45.1,101.3,45z"/>
	<path class="st0" d="M97.9,45.2C97.9,45.2,97.9,45.2,97.9,45.2C98,45.2,98,45.2,97.9,45.2L97.9,45.2z"/>
	<path class="st0" d="M100.6,45.2c0.2,0,0.3,0,0.4-0.1C100.9,45.2,100.8,45.2,100.6,45.2C100.6,45.2,100.6,45.2,100.6,45.2z"/>
	<path class="st0" d="M99.3,44.9c0.1,0,0.2,0.1,0.3,0.1C99.5,45,99.3,44.9,99.3,44.9z"/>
	<path class="st0" d="M101.2,45C101.2,45,101.2,45,101.2,45C101.2,45,101.2,45,101.2,45z"/>
	<path class="st0" d="M101.2,45c-0.1,0-0.2,0.1-0.2,0.1C101.1,45.1,101.2,45.1,101.2,45C101.3,45,101.2,45,101.2,45z"/>
	<path class="st0" d="M97.3,46.5c0-0.2,0.5-0.4,0.8-0.2c0.4-0.1,0.1-0.7-0.2-1.1c0,0.1,0,0.2-0.4,0.3c0.1,0.1,0.9,0.2,0.5,0.4
		c-0.5,0.1-0.4-0.1-0.7-0.1c0.2,0.2-0.6,0.3-0.5,0.7l0.4-0.1C97.4,46.3,97.2,46.4,97.3,46.5z"/>
	<path class="st0" d="M98.7,45.2l0.2,0c-0.2,0-0.3-0.1-0.5-0.2C98,45,98,45.1,98,45.2L98.7,45.2L98.7,45.2z"/>
	<path class="st0" d="M99.5,45.2c-0.1,0.2-0.5,0.3-0.3,0.5c0.5,0,0.3-0.2,0.6-0.3C99.1,45.5,100.1,45.3,99.5,45.2c0.2,0,0.3,0,0.4,0
		c-0.1,0-0.3,0-0.4-0.1c0,0,0,0,0,0l0,0c0,0,0,0,0,0C99.6,45.1,99.6,45.1,99.5,45.2C99.6,45.1,99.6,45.1,99.5,45.2
		C99.6,45.1,99.6,45.1,99.5,45.2C99.3,45.1,99.5,45.1,99.5,45.2c0-0.1,0-0.1,0-0.1c0,0,0,0,0,0l-0.7,0.1
		C99,45.2,99.2,45.2,99.5,45.2z"/>
	<path class="st0" d="M103.3,46.1C103.3,46.1,103.3,46.1,103.3,46.1C103.2,46.1,103.2,46.1,103.3,46.1z"/>
	<path class="st0" d="M103,46c0.1,0,0.1-0.1,0.3-0.1c0.2,0.1,0,0.1,0,0.2c0.1-0.1,0.4-0.2,0-0.2l-0.1,0c-0.3-0.1-0.7-0.3-0.6-0.3
		C102.7,45.7,102.8,45.8,103,46z"/>
	<path class="st0" d="M101.2,45.6l-0.6,0.1l0.3,0.2l0-0.1C101.3,45.8,101.2,45.7,101.2,45.6z"/>
	<polygon class="st0" points="97.8,45.1 97.9,44.9 97.6,45.2 	"/>
	<polygon class="st0" points="97,45.1 97.1,44.9 96.9,45.1 	"/>
	<path class="st0" d="M51.7,48.5l-0.2,0.1C51.6,48.5,51.6,48.5,51.7,48.5z"/>
	<path class="st0" d="M53,48.5L53,48.5C53,48.4,52.9,48.4,53,48.5z"/>
	<path class="st0" d="M77.3,45.6c-0.3-0.2-0.6-0.4-0.5-0.2l0.1,0.2C77,45.6,77.2,45.6,77.3,45.6z"/>
	<path class="st0" d="M63.8,47.1C63.8,47.1,63.8,47.2,63.8,47.1c0.1,0,0.2-0.1,0.3-0.1C63.9,47,63.9,47.1,63.8,47.1z"/>
	<path class="st0" d="M63.6,48l-0.4-0.1C63.3,47.9,63.4,47.9,63.6,48z"/>
	<path class="st0" d="M44.5,48.9l-0.2,0.2C44.6,49.1,44.5,49,44.5,48.9z"/>
	<path class="st0" d="M88.8,45.4c-0.2-0.1-0.4-0.1-0.6-0.1C88.5,45.4,88.7,45.6,88.8,45.4z"/>
	<path class="st0" d="M52.1,46.3c-0.1,0-0.2,0.1-0.2,0.1C52.1,46.4,52.2,46.4,52.1,46.3z"/>
	<path class="st0" d="M87.6,45.3c0,0,0.1,0,0.1,0c0.2,0,0.3-0.1,0.5-0.1C88,45.2,87.8,45.2,87.6,45.3z"/>
	<path class="st0" d="M18.4,49.3C18.4,49.3,18.3,49.3,18.4,49.3C18.3,49.3,18.3,49.3,18.4,49.3z"/>
	<path class="st0" d="M10.7,47.5c0.1,0,0.2,0,0.3,0C11,47.4,10.9,47.4,10.7,47.5z"/>
	<path class="st0" d="M93.8,45.1C94,45.1,93.8,45.1,93.8,45.1L93.8,45.1z"/>
	<path class="st0" d="M94.6,45.9C94.6,45.9,94.6,45.9,94.6,45.9C94.6,45.9,94.6,45.9,94.6,45.9z"/>
	<path class="st0" d="M85.9,46.6C85.9,46.6,85.9,46.6,85.9,46.6C85.9,46.6,85.9,46.6,85.9,46.6z"/>
	<path class="st0" d="M94.1,45.2c-0.1,0-0.1,0-0.2-0.1C93.9,45.2,93.9,45.2,94.1,45.2z"/>
	<path class="st0" d="M94,45.1c0.1,0,0.1,0,0.1,0C94.2,45.1,94.2,45.1,94,45.1z"/>
	<path class="st0" d="M93.6,45.1c0.1,0,0.2,0,0.3,0c0,0,0,0,0,0C93.8,45.1,93.7,45.1,93.6,45.1z"/>
	<path class="st0" d="M32.4,48.4C32.3,48.4,32.3,48.4,32.4,48.4C32.1,48.5,32.2,48.5,32.4,48.4z"/>
	<path class="st0" d="M72.9,47.8C72.9,47.8,72.9,47.8,72.9,47.8C72.9,47.8,72.9,47.8,72.9,47.8L72.9,47.8z"/>
	<path class="st0" d="M72.3,48c0.3-0.3,0.4-0.2,0.6-0.2l-0.2-0.6L72.3,48z"/>
	<path class="st0" d="M48.5,48.6l0.4,0.2c-0.5,0.3-0.9,0.2-0.5,0.5c0-0.6,1.7-0.1,1.7-0.7l0.3,0.1c-0.1,0-0.1,0-0.2,0
		c0.6,0.3,0.4-0.5,1.1-0.4c0.2,0,0.4,0.1,0.3,0.2l0.5-0.2c0.2,0,0.1,0.1,0,0.1l0.8-0.1l0,0c0.1-0.1,0.4-0.3,0.5-0.3
		c0.2,0.1-0.1,0.1,0,0.1L54,48c0.2,0.2-0.2,0.3-0.5,0.3c0.5,0.6,0.4-0.2,1.3,0.2l-0.4,0.1c0.3,0.4,0.6,0.2,1.1,0.4
		c-0.1-0.1-1-0.5-0.5-0.7c0.1,0,0.3,0.1,0.6-0.1c0,0.2,0.3,0.2,0.6,0.1l0,0.3c0.4-0.1,0.3-0.2,0.5-0.4c0.4,0,0.5,0.2,0.6,0.4
		c0.6,0-0.5-0.4,0.3-0.4c0.5,0.1,0.9,0,1.5-0.2c0.4,0.1-0.1,0.2,0.1,0.3l0.3-0.2c0.1,0,0.1,0.1,0,0.1c0.3-0.1,0-0.3,0.5-0.4
		c0.1-0.3,0.9,0.5,1.5,0.1c0.1,0.1-0.1,0.2,0,0.3c0.7-0.3,0.6-0.2,1.2-0.5l0.5,0.2c-0.4-0.2,0.1-0.5,0.5-0.7
		c-0.1-0.1-0.3-0.2-0.3-0.2l0.7-0.2c0.1,0,0,0.2-0.1,0.3c0,0,0.1-0.1,0.1-0.1c0.2,0.1,0.1,0.3,0,0.4c-0.1-0.1-0.2-0.1-0.3-0.2
		c-0.2,0.2-0.3,0.4-0.3,0.6c0,0,0.1-0.1,0.2-0.1c0,0-0.1,0.1,0,0.1c0,0,0.1,0,0.2-0.1l0.2,0.3l0-0.1l0.9,0.2c0.6-0.3,1.2-0.9,2.2-1
		c-0.2,0.2,0,0.4-0.1,0.7c-0.3-0.3-0.8,0.1-1.3,0.1c0.3,0,0.2,0.2,0.1,0.2l0.9-0.3c0,0.2,0.2,0.2,0.5,0.3c-0.2-0.5,0.7-0.3,1.1-0.5
		c0,0.2-0.1,0.3-0.5,0.3c0.5,0.3,0.7-0.6,1.2-0.3c-0.1,0-0.2,0-0.2,0.1c0.3-0.1,0.9-0.1,0.8,0.1l-0.1,0c0.8,0,2.3-0.1,2.4-0.4
		c0,0.1-0.1,0.5-0.1,0.6l1.3-1.4c-0.1,0.3,0.4,1.1-0.3,1.3c0.2,0,0.4,0.1,0.8,0c-0.1,0-0.3-0.5-0.2-0.5c0.5,0.4,0.3,0.2,0.9,0.5
		c-0.2-0.1,0-0.6,0.3-0.6c0,0.1,0,0.5-0.1,0.6l0.7-0.5c-0.2,0.1,0,0.4,0.1,0.6c-0.1-0.1,0.6,0,0.8-0.1L76,47.6
		c0.8,0.1,0.8-0.8,1.6-0.7c-0.1,0.1-0.2,0.7,0.2,0.7c0.2-0.3,0.8-1.3,1.5-1.5l0.1,0.1L80,46c-0.3,0.4-1.3,1.3-1.8,1.6
		c0.3,0.1,0.1,0.2,0.5,0.2c0.2,0.1-0.2,0.2-0.4,0.2l1.1,0.1c-0.1-0.3,0.8-0.3,0.8-0.6l-1.2,0.4C79,47.5,79.7,47,80.5,47
		c0.2,0.1-0.1,0.6-0.1,0.7c0.1-0.1,0.7-0.2,0.8-0.1l-0.3,0.2c0.4,0.1,0.7-0.4,1.2-0.1c0.2,0,0.5,0.4,0.6,0.2
		c-0.3-0.3-0.4-1.4-0.2-1.7c0.1,0,0.9,0.3,1.1,0.5c0.3,0.3-0.4,0.7-0.2,0.9c0-0.1,0.2-0.2,0.2-0.2c0.2,0.1-0.1,0.3,0.3,0.2
		c0.1-0.3,0.8,0,0.2-0.3c0.4-0.1,0.4,0.1,0.9,0c-0.2-0.2,0.4-0.7,0.8-0.8c0,0.1,0.1,0.2,0.1,0.2c0.8,0,1.2,0.1,2,0.1
		c0.1,0.1,0.4,0.2,0.3,0.3c0.1-0.1,0.2-0.2,0.4-0.2c0.5,0.3-0.5,0.1-0.2,0.4c0-0.2,0.6-0.3,0.9-0.4c-0.1-0.3-0.8,0-1.1,0.1
		c0-0.4,0.6-0.8,1.3-1c0.6-0.1,0.3,0.2,0.4,0.2c1.2,0,1-0.7,2-0.4c0.4,0.2,0,0.5,0.1,0.7c-0.5,0.1-0.8-0.1-1.1-0.1l0.4,0.1
		c-0.2,0.1-0.5,0.2-0.7,0.1c0.3,0.2,2,0,2.9,0.2c0.2-0.1,0.4-0.2,0.3-0.3l-0.3,0c-0.3-0.2,0.5-0.3,0.2-0.4c0.4-0.2,0.8-0.4,1.3-0.3
		l0.1,0.3c0-0.1-0.4-0.2-0.5-0.1c0.2-0.1,0.8,0.4,1.1,0l-0.4-0.2c0.4-0.2,0.8-0.5,1.3-0.4c-0.2-0.3-0.1,0-0.5-0.3
		c0.3,0.4-1.2,0-0.7,0.4c-0.4-0.4-0.6-0.1-1.1-0.5c0,0.1,0.2,0.2-0.2,0.1c0,0-0.1,0.1-0.1,0.1c0,0,0,0,0,0c0,0,0,0,0,0c0,0,0,0,0,0
		c0.1,0,0.2,0.1,0.2,0.1c-0.2,0.2-0.8,0.2-1,0.3c-0.2,0,0.1-0.1,0-0.2l-0.3,0.2c0-0.2-0.6-0.3-0.1-0.5l-0.5,0
		c-0.3-0.1-0.7-0.1-1-0.1c-0.2,0-0.6,0.2-0.4,0.1l-0.8,0.1l0-0.1c-0.8,0-1.6,0.4-2.5,0c-0.3,0.1-0.5,0.1-1,0.1l-0.1-0.2
		c-0.3,0.1-1-0.2-1.2,0c-0.4-0.5-1.6-0.1-2.2-0.1l0,0.2c-0.4,0-0.8,0.1-1.3,0.2l0,0.2c-0.4,0.2-1.1-0.1-1.8-0.1c0-0.1,0.2-0.1,0.3,0
		c-0.8-0.4-1.7,0.4-2.5,0.1c-0.2,0.1-0.3,0.1-0.5,0c0,0,0,0,0,0c0,0,0,0-0.1,0c-0.1,0-0.2-0.1-0.3-0.1c0.1,0,0.2,0.1,0.2,0.1
		c-0.1,0-0.4,0-0.6,0.1l-0.1-0.2c0,0,0,0,0,0c-0.2-0.1-0.2,0.1-0.1,0.3c-0.1,0-0.2,0.1-0.3,0.1c-0.2-0.4-0.6,0.1-0.8-0.2
		c-0.1,0.2-1.1,0.2-1.2,0.6c0-0.1-0.1-0.1,0-0.1c-0.2,0-0.5-0.1-0.7,0L73.7,46l-0.5,0.4c-0.3-0.2-0.5-0.3-0.1-0.5
		c-0.7,0.4-0.6,0.1-1.2,0.5l0-0.2c-0.2,0-0.6,0.3-0.7,0.1c-0.5-0.3-2.5,0-3.9-0.3c0.3,0.5-0.6-0.2-0.7,0.2c-0.1-0.1-0.3-0.2-0.1-0.3
		c-0.7,0.1-1-0.2-1.5,0.2c-0.1-0.1,0.1-0.2,0.1-0.3c-0.1,0-0.2,0.1-0.3,0c-0.1-0.1,0.1-0.1,0.2-0.2c-0.7,0-0.7,0.4-0.8,0.8
		c-0.4-0.2-0.5-0.1-0.8,0.1c-0.1-0.1-0.3-0.2,0.1-0.3c-0.2,0-1.5-0.1-1.5,0.2c-0.1-0.1-0.3,0-0.4,0c-0.5,0-0.6,0-1.1,0l0.1,0
		c-0.2,0.4-0.4,0.1-0.9,0.1l0,0c-1-0.2-0.4,0.1-1.4-0.1l0.1,0.2c-0.1,0.5-0.9-0.3-1.4-0.1l0.2,0.1c-0.3,0.2-0.9-0.6-1.2-0.7
		c-0.1,0,0.1-0.1,0.2-0.1c-0.8-0.3-0.1,0.3-0.7,0.4c-0.1-0.2,0.1-0.4-0.3-0.4c-0.2-0.1-1.2,0.5-1.7,0.2c0.1,0.1,0.2,0.2,0,0.3
		c-0.4,0.1-1.2-0.4-1.5,0c-0.1,0-0.1-0.1-0.1-0.1c-0.3,0.1-1.1,0.2-1.2,0.4c-0.3-0.8-2,0.4-2-0.3l-1,0.1l0-0.1
		c-0.6,0-0.9,0.1-1.1,0.3c-0.1,0,0-0.1,0-0.2c-0.9-0.1-1-0.1-1.8,0.3l-0.1-0.2c-0.2,0.1-1.4-0.3-2.3,0c0,0,0-0.1,0.1-0.1
		c-1,0.3-2.5-0.6-2.9,0.3L39,47.1c0.9,0-0.1,0.4,0.2,0.5c-0.3,0.1-0.9-0.2-0.5-0.3l0.1,0c0.1-0.4-1.1-0.1-1.1-0.4
		c-1.7,0.1-3.4-0.1-5.1-0.1l0.2,0.3l-0.6,0c-0.2-0.1-0.2-0.3,0.2-0.3c-0.2-0.2-0.7,0.2-0.7,0.3c-0.8-0.1,0.3-0.4,0.1-0.4l-0.3,0
		l0.1,0c-0.3,0.1-0.3,0.3-0.8,0.3c-0.3-0.1-0.2-0.2-0.3-0.2c0,0,0,0-0.2,0l-0.7,0l0.3,0.3c-0.3,0.1-0.7,0-0.3,0.3
		c-0.5-0.5-2.7-0.1-3-0.2c-0.4,0.2-0.9,0.2-1.4,0.2c0.1,0.1,0.2,0.4-0.2,0.3c0.2-0.6-0.9-0.2-1.3-0.7c0.3,0.3-1.3,0.1-0.8,0.5
		c-0.4,0,0-0.2-0.3-0.4c-0.9,0.3-2.1-0.1-3.2,0c0,0.1,0.2,0.2-0.1,0.3l-0.6-0.4c-0.2,0-0.2,0.5-0.6,0.2c0.1,0.1,0.2,0.2,0,0.2
		c-2.3-0.3-4.6,0.4-6.9-0.3c0.3,0.2,0.1,0.2-0.1,0.2c0.2,0,0,0.2,0,0.3l-1-0.3c-0.2,0.3-1,0-1.1,0.3l0.3-0.1
		c-0.4,0.4,0.6,0.8,0.5,1.2c0.4-0.4,1.2,0.6,1.9,0c0.2,0.1-0.1,0.1,0,0.2c0.2-0.2,0.4-0.2,0.8-0.2l0,0c1.2-0.1,1.7,0.1,3,0.2
		L15.4,49c0.3,0,0.3,0.1,0.5,0.1c0.3-0.3-0.8,0-0.5-0.4c0.4,0.4,2,0,2.3,0.5c0.4,0-0.1-0.3,0.3-0.3l0.1,0.1l0.1-0.2
		c0.3,0,0.4,0.2,0.5,0.3c-0.1,0-0.2,0-0.3,0c0.4,0.2,1.1-0.1,1.2,0l-0.4-0.1c1.2-0.2,2.7,0,3.8-0.3l-0.1-0.1c0.9-0.2,0.7,0.1,1.7,0
		l0,0c0.2-0.1,0.4-0.2,0.7-0.2c-0.2,0.1,0.5,0.2,0.1,0.4c1-0.2,0.5-0.2,1.1-0.6l0.2,0.2c0.2-0.2,0.2-0.2,0.7-0.3
		c-0.4,0.2,0.3,0.3-0.1,0.5c1,0.4,1.5-0.4,2,0.1c0.5-0.5-0.9-0.2-0.6-0.4c-0.2-0.2,0.4-0.4,0.7-0.3c0.3,0,0.6,0.6,1.4,0.6
		c-0.1,0-0.1,0-0.2,0c0.3,0.1,0.6-0.2,1,0c0.2-0.3,0.5,0,0.5-0.4l-0.7,0.1c0.4-0.1,0.8-0.5,1.5-0.4c-0.1,0.1-0.3,0.2-0.4,0.2
		c0.2,0.1,0.4-0.1,0.6,0c-0.1,0.4-0.9,0.1-1.4,0.4c0.2,0.1,0.9-0.3,0.6,0.1c0.3-0.5,0.8,0,1.4-0.4l0,0.2c0.1,0,0.3-0.1,0.4-0.1
		L33.7,49c0.4-0.3,0.9,0.2,1.3,0c-0.9,0-0.2-0.3-0.6-0.4c1.1-0.3,0.7,0.6,1.9,0.4c-0.2,0-0.6-0.1-0.4-0.2c0.2,0,0.6,0.1,0.7,0.2
		c0.8-0.1-0.1-0.2,0.2-0.4c0.3,0.3,0.4-0.1,0.8-0.2l0,0.2c0.9,0.1,0.2-0.5,1.1-0.3l-0.3,0.3l0.4-0.1l-0.1,0.3
		c0.5-0.2,0.6-0.2,1.1-0.1c-0.1-0.2,0.1-0.4,0.5-0.4c0.3,0.1-0.2,0.2,0.4,0.2c-0.1,0.1-0.3,0.3-0.5,0.1c0,0.1-0.1,0.1-0.2,0.2
		c0.3,0.1,0.8,0,1,0c-0.1,0-0.2,0-0.2,0l0.8-0.3c0.1,0.1,0,0.2-0.1,0.2c0.2,0,0.3-0.1,0.5-0.2c-0.1,0.2,0,0.4-0.4,0.5l0.8-0.2
		c0.1,0.1,0.4,0.2,0.3,0.3c0.5,0.1,1.1-0.4,1.7-0.3c0,0,0.1-0.1,0.2-0.1c0.6,0,1.1,0.2,1.7,0l0.4,0.3c0.5-0.1-0.5-0.4,0.3-0.5
		c0.6-0.1,0.2,0.3,0.5,0.4c0.3-0.2,0.8-0.5,1.4-0.3C48.8,48.6,48.7,48.6,48.5,48.6z M55,48.3c-0.1,0-0.4,0.2-0.5,0.1
		C54.6,48.1,54.7,48.2,55,48.3z M64.7,47.5c-0.1,0.1-0.2,0-0.4,0C64.4,47.5,64.6,47.5,64.7,47.5z M91.9,45.3
		C91.9,45.3,91.9,45.3,91.9,45.3C91.6,45.3,91.7,45.3,91.9,45.3z M92.5,45.4C92.6,45.4,92.6,45.4,92.5,45.4c0,0-0.1,0-0.3,0
		C92.3,45.4,92.3,45.5,92.5,45.4z M30.5,47l0.1,0.1C30.4,47.1,30.4,47,30.5,47z"/>
	<path class="st0" d="M63.6,47.9c0,0,0-0.1-0.1-0.1C63.5,47.8,63.5,47.8,63.6,47.9z"/>
	<path class="st0" d="M44.5,48.8C44.5,48.8,44.5,48.8,44.5,48.8C44.5,48.8,44.5,48.8,44.5,48.8L44.5,48.8z"/>
	<path class="st0" d="M83.6,47.5c-0.1,0-0.2-0.1-0.2-0.1C83.4,47.5,83.4,47.5,83.6,47.5z"/>
	<path class="st0" d="M95.6,45L95.2,45c0.2,0,0.2,0,0.3,0.1C95.5,45,95.4,45,95.6,45z"/>
	<path class="st0" d="M98.8,46.3c0.1,0,0.1,0,0.2,0l0-0.1C98.7,46.2,98.6,46.2,98.8,46.3z"/>
	<path class="st0" d="M95.9,45.7c0,0.2,0.3,0.1,0.5,0.1c0,0,0,0,0,0C96.5,45.5,96.2,45.6,95.9,45.7z"/>
	<path class="st0" d="M96.5,45.8c0.1,0,0.2,0,0.2,0C96.8,45.7,96.6,45.7,96.5,45.8z"/>
	<path class="st0" d="M93.2,45.3c0.1,0,0.1-0.2,0.1-0.2C93.5,44.9,92.6,45.4,93.2,45.3z"/>
	<polygon class="st0" points="96.1,46.3 96.1,46.1 95.9,46.3 	"/>
	<path class="st0" d="M94.1,46.2l0.4,0.1c0,0,0-0.1,0.1-0.1C94.4,46.2,94.1,46.1,94.1,46.2z"/>
	<path class="st0" d="M94.6,46.2c0.1,0,0.3,0,0.3,0C94.9,46.1,94.7,46.1,94.6,46.2z"/>
	<polygon class="st0" points="95.6,46.4 95.5,46.4 95.2,46.3 	"/>
	<path class="st0" d="M89.6,46.3l-0.5,0.1c0,0.1,0.1,0.1,0.2,0.1C89.6,46.4,89.7,46.3,89.6,46.3z"/>
	<path class="st0" d="M91,46.9c-0.1,0-0.1-0.1-0.2-0.2l0,0.3L91,46.9z"/>
	<path class="st0" d="M89.7,47c0,0.1-0.7,0.2-0.1,0.2C89.7,47.1,90.1,47,89.7,47z"/>
	<polygon class="st0" points="82.9,46.8 83,46.7 83,46.3 	"/>
	<path class="st0" d="M76.9,48c0.5,0.1,0.1-0.3,0.6-0.2c0.1-0.1-0.4-0.1-0.3-0.2C76.9,47.8,76.8,47.7,76.9,48z"/>
	<path class="st0" d="M77.3,47.7c0.1,0,0.1,0,0.2-0.1C77.3,47.6,77.3,47.6,77.3,47.7z"/>
	<polygon class="st0" points="9.5,47.2 9.1,47.1 9.3,47.3 	"/>
	<path class="st0" d="M8.8,47.6l-0.1-0.3l-0.2,0.3C8.6,47.6,8.8,47.5,8.8,47.6z"/>
	<path class="st0" d="M55.9,48.9L55.9,48.9c0-0.2-0.1-0.2-0.3-0.2L55.9,48.9z"/>
	<polygon class="st0" points="51.2,48.8 51.3,48.8 51.2,48.5 	"/>
	<path class="st0" d="M47.3,49.2c0.2,0,0.3-0.1,0.5,0C47.5,49.2,47.3,48.9,47.3,49.2z"/>
</g>
</svg>
